<!-- BIG BOY CLYDE -->
<svg width="309" height="289" viewBox="0 0 309 289" fill="none" xmlns="http://www.w3.org/2000/svg">
    <path d="M64.5529 129.782C65.1709 129.834 65.7843 129.638 66.2583 129.238C66.7323 128.839 67.0284 128.267 67.0815 127.649C67.1257 127.343 67.1089 127.032 67.0322 126.732C66.9555 126.433 66.8203 126.152 66.6344 125.905C66.4485 125.658 66.2157 125.451 65.9492 125.294C65.6827 125.138 65.3878 125.036 65.0817 124.994L64.9387 124.99C58.7688 124.293 52.5672 123.913 46.3584 123.853C46.05 123.841 45.7423 123.891 45.4532 123.999C45.164 124.107 44.8989 124.27 44.6733 124.481C44.4477 124.692 44.2659 124.945 44.1384 125.226C44.011 125.507 43.9403 125.81 43.9305 126.119C43.9217 126.21 43.9193 126.301 43.9234 126.392C43.937 127.026 44.1954 127.631 44.6444 128.079C45.0935 128.528 45.6986 128.785 46.3331 128.797C46.3331 128.797 52.0621 128.687 64.3965 129.791L64.5529 129.782Z" fill="black" />
    <path d="M64.5533 129.782C65.1904 129.833 65.8219 129.629 66.3087 129.215C66.7954 128.801 67.0977 128.21 67.1489 127.573C67.2001 126.936 66.9961 126.304 66.5817 125.817C66.1673 125.331 65.5766 125.028 64.9394 124.977C54.6858 123.928 51.0812 117.457 50.958 117.193C50.6686 116.644 50.1728 116.232 49.5797 116.048C48.9866 115.864 48.3447 115.923 47.7952 116.212L47.5971 116.324C47.3214 116.462 47.0755 116.653 46.8737 116.885C46.6718 117.118 46.518 117.389 46.4209 117.681C46.3238 117.974 46.2853 118.282 46.3078 118.59C46.3302 118.897 46.413 119.197 46.5516 119.472L46.5496 119.55C46.7995 119.947 51.5235 128.4 64.3712 129.777L64.5533 129.782Z" fill="black" />
    <path d="M49.6655 126.789C52.0582 126.818 54.366 125.903 56.0899 124.244C57.8137 122.584 58.8151 120.313 58.8774 117.921C58.9398 115.541 58.0542 113.234 56.4154 111.507C54.7766 109.78 52.5188 108.774 50.1389 108.712C47.759 108.65 45.4518 109.535 43.7248 111.174C41.9979 112.813 40.9928 115.071 40.9305 117.451C40.8676 119.843 41.7487 122.163 43.3833 123.911C45.0179 125.658 47.2746 126.692 49.6655 126.789ZM50.0129 113.524C51.1054 113.585 52.1333 114.061 52.8866 114.855C53.6398 115.649 54.0615 116.7 54.0656 117.795C54.0366 118.898 53.5705 119.945 52.7696 120.705C51.9687 121.465 50.8987 121.876 49.7949 121.847C49.2484 121.833 48.7101 121.711 48.2107 121.489C47.7113 121.266 47.2605 120.948 46.8842 120.551C46.5079 120.155 46.2134 119.688 46.0174 119.178C45.8215 118.667 45.728 118.123 45.7423 117.577C45.7567 117.03 45.8785 116.492 46.1008 115.992C46.3232 115.493 46.6418 115.042 47.0383 114.666C47.4349 114.29 47.9017 113.995 48.4121 113.799C48.9224 113.603 49.4664 113.51 50.0129 113.524Z" fill="white" />
    <path d="M64.5532 129.782C65.1174 129.808 65.6733 129.638 66.1275 129.302C66.6339 128.943 66.9768 128.397 67.0807 127.785C67.1845 127.172 67.0409 126.544 66.6814 126.037L66.6061 125.931C58.0692 113.995 48.6476 115.961 48.2541 116.081C47.6424 116.184 47.0969 116.526 46.7372 117.032C46.3775 117.537 46.233 118.165 46.3355 118.776C46.3284 118.815 46.3274 118.855 46.3325 118.893C46.4986 119.52 46.8923 120.061 47.4367 120.413C47.9811 120.764 48.6369 120.899 49.2759 120.793C49.5394 120.669 56.0726 119.669 62.7303 128.823C62.924 129.128 63.1942 129.377 63.514 129.545C63.8338 129.714 64.1921 129.795 64.5532 129.782Z" fill="black" />
    <path d="M79.831 212.3C83.79 212.377 87.7182 211.591 91.3436 209.999C104.671 204.219 117.303 196.954 129.001 188.341C131.563 186.469 133.278 183.657 133.768 180.522C134.257 177.386 133.482 174.185 131.612 171.621L131.524 171.489C129.616 168.93 126.774 167.23 123.618 166.757C120.461 166.284 117.246 167.078 114.672 168.965C104.446 176.443 93.4109 182.746 81.7752 187.755C81.3265 187.989 80.8219 188.093 80.3173 188.057C79.8127 188.021 79.3281 187.845 78.9174 187.55C78.4753 187.279 78.0997 186.913 77.8182 186.477C77.5368 186.042 77.3568 185.549 77.2915 185.035C74.8997 162.067 75.9948 135.157 76.0016 134.897C76.1518 131.692 75.024 128.558 72.8658 126.183C70.7077 123.809 67.6955 122.388 64.4905 122.232L64.3604 122.229C61.1619 122.141 58.0565 123.312 55.712 125.489C53.3674 127.667 51.9708 130.677 51.8224 133.873C51.7917 135.044 50.6727 162.865 53.277 187.659C54.0016 194.273 57.0847 200.404 61.9614 204.929C66.8381 209.454 73.182 212.071 79.831 212.3Z" fill="url(#paint0_linear_3_2415)" />
    <path d="M51.8713 166.801L75.896 163.786C75.9954 164.96 75.9648 166.13 76.0676 167.174L52.0428 170.189C51.9204 169.064 51.8631 167.932 51.8713 166.801Z" fill="#51B1FC" />
    <path d="M62.9545 205.742L77.5148 185.952C77.7519 186.645 78.2506 187.219 78.9045 187.55C79.2394 187.805 79.6442 187.952 80.0648 187.971L65.6215 207.764C64.6269 207.242 63.7258 206.559 62.9545 205.742Z" fill="#51B1FC" />
    <path d="M75.8718 139.839L75.7833 143.22L51.57 143.497L51.6586 140.116L75.8718 139.839Z" fill="#51B1FC" />
    <path d="M107.018 202.341L104.112 203.957L94.6771 181.586L97.5825 179.97L107.018 202.341Z" fill="#51B1FC" />
    <path d="M87.3886 37.9805C89.395 32.0229 93.022 26.7423 97.8625 22.7313C102.703 18.7202 108.565 16.1375 114.792 15.2729C162.034 8.59461 210.166 17.4362 251.951 40.4677C257.482 43.5201 262.053 48.054 265.15 53.5605C268.247 59.0669 269.748 65.3277 269.484 71.6399C268.968 82.0473 267.74 92.4073 265.809 102.647C263.965 112.943 261.395 123.096 258.116 133.029C256.099 139.003 252.452 144.295 247.587 148.307C242.722 152.319 236.832 154.891 230.583 155.733C183.368 162.469 135.246 153.576 93.5575 130.411C88.0106 127.41 83.4226 122.906 80.3205 117.415C77.2184 111.924 75.728 105.669 76.0206 99.3691C76.4881 88.9198 77.6738 78.5151 79.569 68.2285C81.5267 57.9891 84.1385 47.8857 87.3886 37.9805Z" fill="url(#paint1_linear_3_2415)" />
    <path d="M97.486 45.0128C98.7738 40.79 101.255 37.0299 104.632 34.1857C108.009 31.3416 112.136 29.5348 116.516 28.9833C132.654 27.0606 149.001 27.8847 164.864 31.4206C180.909 35.0431 196.23 41.3395 210.186 50.0462C214.063 52.4343 217.219 55.8321 219.313 59.8758C221.408 63.9195 222.364 68.4568 222.078 73.0019C221.636 80.5299 220.745 88.0247 219.408 95.4462C218.03 102.838 216.187 110.136 213.89 117.295C212.556 121.492 210.061 125.224 206.693 128.061C203.325 130.898 199.223 132.723 194.861 133.325C178.673 135.203 162.284 134.334 146.386 130.754C130.359 127.138 115.042 120.888 101.061 112.259C97.2264 109.835 94.1123 106.427 92.0435 102.39C89.9746 98.3526 89.0267 93.8344 89.2986 89.3063C89.6617 81.7715 90.554 74.2716 91.9686 66.862C93.282 59.4561 95.1259 52.1543 97.486 45.0128Z" fill="#FF5D12" />
    <path d="M101.155 49.0127C102.45 44.7905 104.912 41.0203 108.257 38.1374C111.602 35.2545 115.695 33.3764 120.062 32.7197C136.175 30.6241 152.527 31.2723 168.424 34.6368C184.644 38.1709 200.177 44.3366 214.406 52.8892C218.302 55.3214 221.465 58.7652 223.559 62.8537C225.652 66.9422 226.596 71.5221 226.291 76.1051C225.804 83.7208 224.867 91.3011 223.484 98.8061C222.009 106.328 220.076 113.752 217.697 121.039C216.342 125.306 213.792 129.095 210.349 131.957C206.907 134.819 202.716 136.634 198.273 137.188C182.048 139.115 165.615 138.289 149.665 134.744C133.684 131.111 118.414 124.862 104.47 116.252C100.668 113.835 97.5831 110.444 95.5367 106.431C93.4903 102.418 92.5572 97.9291 92.8344 93.4328C93.3064 85.9021 94.2415 78.4076 95.6344 70.9919C96.9614 63.546 98.8061 56.2018 101.155 49.0127Z" fill="black" />
    <path d="M247.591 136.034C238.624 132.947 235.298 118.989 240.164 104.858C245.03 90.7275 256.243 81.7756 265.211 84.8633C274.178 87.951 277.504 101.909 272.638 116.04C267.773 130.17 256.559 139.122 247.591 136.034Z" fill="#FFE75C" />
    <path d="M223.277 27.224C212.828 23.6969 204.85 20.2345 193.97 23.2031C188.857 24.6309 184.025 25.2852 161.368 20.7877C148.551 18.2397 149.957 14.2422 150.72 9.96753C152.187 3.62909 165.247 1.88883 196.443 8.30174C225.695 14.4035 223.277 27.224 223.277 27.224Z" fill="url(#paint2_linear_3_2415)" />
    <path d="M108.671 179.479C109.801 175.468 112.22 171.94 115.555 169.44C118.89 166.94 122.955 165.607 127.122 165.647L192.842 165.676C197.02 165.654 201.091 166.999 204.432 169.507C207.774 172.015 210.203 175.547 211.349 179.565L225.9 230.18C229.467 242.549 228.237 255.808 222.456 267.31C220.089 272.202 216.384 276.323 211.772 279.197C207.159 282.07 201.827 283.578 196.393 283.546L123.387 283.456C117.961 283.448 112.644 281.931 108.031 279.076C103.417 276.22 99.6885 272.138 97.2615 267.285C91.5563 255.694 90.3735 242.394 93.9438 229.978L108.671 179.479Z" fill="#FF962A" />
    <path d="M111.819 228.234L148.624 229.198C149.89 229.212 151.12 228.775 152.094 227.966C153.069 227.158 153.724 226.03 153.945 224.783C154.564 221.025 155.638 214.806 157.32 205.22C159.003 195.634 160.613 183.833 164.336 175.862C164.553 175.431 164.592 174.931 164.443 174.471C164.294 174.012 163.97 173.63 163.541 173.407C163.246 173.254 162.914 173.187 162.583 173.213L125.628 173.026C124.718 173.043 123.828 173.292 123.041 173.749C122.255 174.207 121.599 174.859 121.135 175.642C115.671 185.519 112.891 202.235 108.417 223.981C108.335 224.452 108.346 224.935 108.452 225.402C108.557 225.869 108.753 226.311 109.03 226.701C109.306 227.092 109.657 227.424 110.062 227.679C110.468 227.933 110.919 228.105 111.391 228.184L111.819 228.234Z" fill="#FFE75C" />
    <path d="M95.293 158.567C97.3507 158.62 99.3782 158.063 101.119 156.965C102.86 155.866 104.236 154.276 105.073 152.396C105.911 150.515 106.171 148.429 105.823 146.4C105.474 144.371 104.532 142.492 103.115 140.998C101.698 139.505 99.87 138.466 97.8623 138.011C95.8547 137.557 93.7574 137.708 91.8356 138.446C89.9139 139.184 88.2541 140.475 87.0661 142.156C85.8781 143.837 85.2152 145.832 85.1613 147.89C85.0891 150.649 86.1159 153.324 88.016 155.327C89.916 157.329 92.5336 158.494 95.293 158.567ZM95.7084 142.7C96.8147 142.704 97.8951 143.035 98.813 143.653C99.7309 144.27 100.445 145.146 100.865 146.169C101.286 147.193 101.393 148.318 101.174 149.402C100.955 150.487 100.419 151.482 99.6345 152.262C98.85 153.042 97.8519 153.571 96.7662 153.784C95.6806 153.997 94.5562 153.883 93.5354 153.457C92.5145 153.03 91.6429 152.311 91.0308 151.39C90.4187 150.468 90.0935 149.386 90.0964 148.28C90.0857 148.193 90.088 148.105 90.1033 148.019C90.1412 146.571 90.7531 145.197 91.8042 144.199C92.8554 143.202 94.2598 142.662 95.7084 142.7Z" fill="black" />
    <path d="M103.226 158.775C103.804 158.794 104.369 158.598 104.811 158.225C105.254 157.852 105.542 157.329 105.621 156.756C105.755 156.629 108.278 139.777 110.184 131.628C110.26 131.323 110.275 131.005 110.229 130.693C110.183 130.382 110.075 130.082 109.913 129.812C109.751 129.542 109.537 129.307 109.284 129.119C109.031 128.932 108.743 128.796 108.438 128.719C108.132 128.643 107.815 128.628 107.503 128.674C107.191 128.72 106.892 128.828 106.622 128.99C106.352 129.152 106.116 129.366 105.929 129.619C105.741 129.872 105.605 130.16 105.529 130.465C103.487 138.871 100.974 155.333 100.827 155.98C100.732 156.614 100.889 157.261 101.264 157.781C101.64 158.302 102.204 158.655 102.836 158.765L103.226 158.775Z" fill="black" />
    <path d="M165.631 215.849C179.659 216.867 190.305 207.906 203.343 197.055L205.605 195.162C208.057 193.104 209.592 190.155 209.871 186.966C210.15 183.776 209.15 180.606 207.091 178.153C205.033 175.7 202.084 174.166 198.894 173.887C195.705 173.608 192.535 174.608 190.082 176.666L187.82 178.559C173.05 190.926 169.882 192.665 165.1 191.369C156.055 188.92 139.769 174.698 114.625 150.875C112.259 148.935 109.247 147.963 106.193 148.156C103.14 148.348 100.273 149.69 98.169 151.911C96.0653 154.133 94.8813 157.069 94.8553 160.128C94.8293 163.187 95.9633 166.143 98.029 168.4C128.376 197.305 144.421 210.739 158.762 214.758C161.005 215.368 163.308 215.734 165.631 215.849Z" fill="url(#paint3_linear_3_2415)" />
    <path d="M25.4761 180.815L25.7362 180.822L84.7201 174.688C85.1232 174.639 85.5064 174.485 85.8322 174.243C86.1579 174 86.4151 173.677 86.5783 173.305C86.7662 172.912 86.847 172.475 86.8127 172.04C86.7784 171.605 86.6302 171.187 86.3829 170.828L51.7216 122.809C51.4489 122.465 51.0934 122.195 50.6882 122.025C50.283 121.855 49.8414 121.791 49.4046 121.838C48.9811 121.883 48.5798 122.049 48.2493 122.318C47.9188 122.587 47.6735 122.945 47.543 123.351L23.2237 177.373C23.0756 177.76 23.0281 178.179 23.0856 178.591C23.1431 179.002 23.3037 179.392 23.5526 179.724C23.7576 180.051 24.0407 180.322 24.3765 180.512C24.7123 180.703 25.0901 180.807 25.4761 180.815ZM80.0206 170.271L29.3906 175.452L50.2543 129.148L80.0206 170.271Z" fill="white" />
    <path d="M42.0929 162.51L42.7432 162.527L92.7972 149.522C93.4524 149.48 94.0642 149.18 94.4981 148.688C94.932 148.195 95.1524 147.55 95.1109 146.895C95.0694 146.24 94.7693 145.628 94.2767 145.194C93.7841 144.76 93.1392 144.54 92.4841 144.581C92.1857 144.61 91.8938 144.686 91.6193 144.806L41.5687 157.681C40.9385 157.874 40.405 158.299 40.076 158.87C39.747 159.441 39.6471 160.116 39.7963 160.758C39.9435 161.256 40.2454 161.694 40.6583 162.009C41.0712 162.324 41.5737 162.499 42.0929 162.51Z" fill="#FFE75C" />
    <path d="M170.007 73.5903L204.943 81.2724C203.876 77.6101 201.835 74.3059 199.038 71.7117C196.242 69.1176 192.793 67.3306 189.061 66.5411C185.544 65.6903 181.854 65.9064 178.46 67.1619C175.066 68.4174 172.123 70.6553 170.007 73.5903Z" fill="#57F287" />
    <path d="M139.858 66.9444L106.605 59.5666C108.632 56.7431 111.446 54.5792 114.696 53.345C117.945 52.1109 121.486 51.8612 124.876 52.6271C128.435 53.4358 131.707 55.1944 134.346 57.7156C136.984 60.2368 138.889 63.4262 139.858 66.9444Z" fill="#57F287" />
    <path d="M184.383 96.0905L120.085 81.5229C118.331 93.8403 128.097 108.542 147.886 113.224C167.675 117.907 182.102 108.654 184.383 96.0905Z" fill="#57F287" />
    <path d="M226.657 255.448L93.1399 255.205C92.7974 253.738 92.5322 252.254 92.3453 250.759L227.427 250.913C227.294 252.443 227.037 253.96 226.657 255.448Z" fill="#FF5D12" />
    <path d="M125.294 160.914L127.707 163.19L111.618 181.248L109.205 178.973L125.294 160.914Z" fill="#3F99F2" />
    <path d="M198.552 201.094L195.893 203.236L183.162 182.471L185.691 180.325L198.552 201.094Z" fill="#3F99F2" />
    <path d="M137.076 202.998L134.399 200.846L147.046 180.094L149.726 182.117L137.076 202.998Z" fill="#3F99F2" />
    <path d="M166.914 191.676C168.064 191.834 169.235 191.685 170.309 191.244L170.706 215.851L167.325 215.763L166.914 191.676Z" fill="#3F99F2" />
    <path d="M303.345 159.502C302.022 158.603 300.909 157.431 300.082 156.063C299.255 154.695 298.733 153.164 298.553 151.577L297.892 146.259C297.872 146.117 297.801 145.987 297.693 145.893C297.586 145.798 297.448 145.746 297.305 145.744C297.172 145.741 297.044 145.789 296.948 145.881C296.851 145.972 296.796 146.098 296.793 146.231L295.854 151.506C295.566 153.074 294.955 154.565 294.06 155.885C293.164 157.204 292.004 158.322 290.654 159.17L289.944 159.551C289.847 159.59 289.764 159.658 289.708 159.746C289.651 159.834 289.625 159.938 289.631 160.043C289.619 160.147 289.641 160.251 289.692 160.343C289.744 160.434 289.823 160.506 289.918 160.55L290.607 160.968C291.9 161.873 292.994 163.035 293.818 164.382C294.644 165.728 295.183 167.23 295.402 168.794L296.06 174.211C296.056 174.343 296.105 174.472 296.197 174.568C296.288 174.664 296.414 174.72 296.546 174.724C296.689 174.73 296.829 174.683 296.942 174.595C297.054 174.506 297.131 174.38 297.159 174.24L298.1 168.865C298.377 167.306 298.983 165.825 299.88 164.52C300.777 163.215 301.941 162.117 303.298 161.301L304.008 160.919C304.133 160.784 304.209 160.609 304.221 160.425C304.219 160.24 304.152 160.061 304.034 159.92L303.345 159.502Z" fill="#57F287" />
    <path d="M22.645 218.745C20.6513 217.411 18.9726 215.672 17.7251 213.641C16.4776 211.612 15.69 209.341 15.4171 206.986L14.4179 199.099C14.3873 198.887 14.2808 198.695 14.1186 198.555C13.9565 198.415 13.7491 198.337 13.5336 198.334C13.3333 198.329 13.14 198.401 12.9948 198.536C12.8495 198.672 12.7663 198.858 12.7611 199.055L11.3505 206.88C10.9173 209.206 9.99734 211.417 8.64842 213.374C7.29955 215.329 5.55149 216.987 3.51706 218.244L2.44722 218.809C2.30104 218.866 2.17631 218.968 2.09152 219.098C2.00669 219.229 1.96651 219.383 1.97599 219.539C1.9584 219.692 1.99051 219.847 2.06835 219.983C2.14619 220.118 2.26545 220.225 2.40841 220.291L3.4472 220.912C5.39698 222.255 7.0459 223.979 8.28975 225.977C9.53511 227.974 10.3479 230.203 10.679 232.522L11.6743 240.558C11.6692 240.754 11.7426 240.946 11.8805 241.087C12.0185 241.23 12.2077 241.314 12.408 241.319C12.6233 241.328 12.8346 241.259 13.0038 241.128C13.1731 240.996 13.2895 240.81 13.3311 240.602L14.7456 232.629C15.1618 230.317 16.0754 228.121 17.4253 226.186C18.7767 224.25 20.5314 222.623 22.5752 221.413L23.645 220.848C23.8342 220.646 23.948 220.387 23.9657 220.114C23.9623 219.84 23.8622 219.575 23.6838 219.365L22.645 218.745Z" fill="#57F287" />
    <path d="M38.5662 25.3264C37.6598 24.7142 36.8922 23.918 36.3135 22.9897C35.7349 22.0615 35.358 21.022 35.2074 19.9385L34.8072 16.1281C34.7125 15.9256 34.6151 15.8231 34.4153 15.8178C34.2154 15.8126 34.0129 15.9073 34.0077 16.1072L33.4086 19.8914C33.2015 20.9655 32.7707 21.9839 32.1443 22.8806C31.5178 23.7773 30.7096 24.5322 29.7724 25.0961L29.2623 25.4828C29.1623 25.4801 29.0598 25.5775 29.0546 25.7773C29.0519 25.8773 29.1492 25.9798 29.2466 26.0824L29.7384 26.3952C30.6473 27.0277 31.4149 27.8421 31.9926 28.7867C32.5704 29.7314 32.9455 30.7857 33.0946 31.883L33.4948 35.6935C33.5152 35.782 33.565 35.8609 33.6363 35.9174C33.7076 35.9737 33.7959 36.0041 33.8867 36.0037C34.0866 36.0089 34.1917 35.8117 34.2943 35.7144L34.8934 31.9301C35.0995 30.8421 35.5295 29.8089 36.1559 28.8957C36.7823 27.9827 37.5914 27.2096 38.5322 26.6255L39.0397 26.3388C39.1423 26.2415 39.2448 26.1442 39.2474 26.0442C39.2527 25.8444 39.1553 25.7418 39.0554 25.7392L38.5662 25.3264Z" fill="#FF8CC4" />
    <path d="M272.816 235.837C271.748 235.138 270.844 234.231 270.162 233.173C269.48 232.115 269.036 230.931 268.858 229.696L268.383 225.356C268.271 225.125 268.156 225.008 267.921 225.002C267.686 224.996 267.448 225.104 267.442 225.331L266.741 229.641C266.498 230.864 265.992 232.024 265.256 233.044C264.519 234.065 263.569 234.924 262.466 235.566L261.866 236.006C261.749 236.003 261.628 236.113 261.622 236.341C261.619 236.455 261.734 236.572 261.849 236.689L262.428 237.045C263.498 237.767 264.402 238.695 265.083 239.772C265.764 240.848 266.206 242.05 266.383 243.3L266.858 247.64C266.882 247.741 266.941 247.831 267.024 247.895C267.108 247.96 267.212 247.994 267.319 247.994C267.554 248 267.678 247.776 267.799 247.665L268.5 243.355C268.741 242.116 269.246 240.939 269.983 239.9C270.719 238.861 271.67 237.981 272.777 237.316L273.374 236.99C273.495 236.88 273.615 236.769 273.618 236.655C273.624 236.427 273.51 236.31 273.392 236.307L272.816 235.837Z" fill="#FF8CC4" />
    <defs>
        <linearGradient id="paint0_linear_3_2415" x1="101.38" y1="191.99" x2="69.223" y2="164.652" gradientUnits="userSpaceOnUse">
            <stop stop-color="#66BCFF" />
            <stop offset="1" stop-color="#8CD9FF" />
        </linearGradient>
        <linearGradient id="paint1_linear_3_2415" x1="184.571" y1="5.40051" x2="161.56" y2="160.576" gradientUnits="userSpaceOnUse">
            <stop stop-color="#FFC618" />
            <stop offset="0.31" stop-color="#FFAD19" />
            <stop offset="1" stop-color="#FF7D12" />
        </linearGradient>
        <linearGradient id="paint2_linear_3_2415" x1="-56162.3" y1="24765.9" x2="-60301" y2="24657.5" gradientUnits="userSpaceOnUse">
            <stop stop-color="#66BCFF" />
            <stop offset="1" stop-color="#8CD9FF" />
        </linearGradient>
        <linearGradient id="paint3_linear_3_2415" x1="-93779.2" y1="-71714.4" x2="-99714.6" y2="-72107.6" gradientUnits="userSpaceOnUse">
            <stop stop-color="#66BCFF" />
            <stop offset="1" stop-color="#8CD9FF" />
        </linearGradient>
    </defs>
</svg>
    