<svg width="399" height="405" viewBox="0 0 399 405" fill="none" xmlns="http://www.w3.org/2000/svg">
    <path d="M325.556 397.354L325.598 397.387L325.639 397.423C328.87 400.319 332.86 402.234 337.141 402.944C341.422 403.654 345.817 403.13 349.811 401.432C353.804 399.735 357.232 396.935 359.692 393.36C362.151 389.785 363.542 385.583 363.7 381.247L363.7 381.241C363.852 377.459 363.102 373.694 361.512 370.259C359.921 366.824 357.535 363.817 354.552 361.486C351.569 359.156 348.074 357.569 344.356 356.857C340.638 356.144 336.804 356.327 333.171 357.39L333.167 357.392L294.684 368.531C294.263 368.69 293.891 368.958 293.606 369.307C293.313 369.668 293.123 370.101 293.057 370.561C292.991 371.021 293.052 371.49 293.233 371.918L291.852 372.503L293.233 371.918C293.414 372.346 293.709 372.717 294.084 372.99L294.103 373.003L294.121 373.017L325.556 397.354Z" fill="#747F8D" stroke="black" strokeWidth="3"/>
    <path d="M4.20248 193.219H5.02318L5.46573 193.91C29.8159 231.939 65.3485 261.492 107.178 278.505C112.884 280.761 119.239 280.73 124.922 278.421C130.607 276.112 135.183 271.7 137.699 266.104C138.942 263.301 139.607 260.276 139.655 257.21C139.703 254.143 139.133 251.098 137.978 248.256C136.824 245.414 135.109 242.834 132.935 240.67C130.763 238.507 128.178 236.803 125.334 235.661C92.0314 222.617 63.7322 199.333 44.5174 169.167C42.7846 166.515 40.5409 164.235 37.9172 162.459L38.7497 161.229L37.9172 162.459C35.2913 160.682 32.3373 159.447 29.2282 158.825C26.1191 158.203 22.9172 158.208 19.8098 158.838C16.7167 159.465 13.779 160.7 11.1668 162.471C6.49973 166.075 3.26506 171.222 2.04124 176.991C0.875671 182.486 1.60652 188.204 4.0993 193.219H4.20248Z" fill="#747F8D" stroke="black" strokeWidth="3"/>
    <path d="M201.393 48.0615L271.656 56.1688C272.035 53.1092 271.864 50.0026 271.148 46.9961C270.324 43.534 268.795 40.2791 266.655 37.4349C262.255 31.6506 255.772 27.811 248.584 26.7329C241.401 25.6553 234.08 27.4213 228.178 31.6553C215.949 40.8261 207.483 45.4558 202.023 47.7957C201.809 47.8878 201.598 47.9763 201.393 48.0615Z" fill="#21CDA5" stroke="black" strokeWidth="3"/>
    <path d="M214.093 49.0865C213.294 48.5389 212.444 47.9208 211.543 47.2234C204.669 41.9056 194.683 31.8925 181.446 13.056L181.442 13.0494C179.425 10.1466 176.856 7.66985 173.881 5.76068C170.907 3.85151 167.585 2.54741 164.106 1.92299C160.627 1.29856 157.059 1.36607 153.607 2.12161C150.154 2.87714 146.884 4.30591 143.984 6.3262L143.948 6.35095L143.911 6.3736C138.416 9.74792 134.447 15.1248 132.841 21.3698C131.298 27.3741 132.054 33.7294 134.946 39.1932L214.093 49.0865Z" fill="#21CDA5" stroke="black" strokeWidth="3"/>
    <path d="M91.7464 374.564L91.7505 374.573L91.7545 374.581C97.8057 387.511 107.538 398.368 119.732 405.79C131.926 413.212 146.038 416.871 160.301 416.308C160.302 416.308 160.304 416.308 160.305 416.308L251.561 412.252L251.565 412.252C267.145 411.607 282.182 406.343 294.762 397.129C307.337 387.92 316.89 375.18 322.207 360.528C327.34 345.098 328.031 328.535 324.202 312.731L301.155 232.57L114.871 205.529L86.7878 327.893L86.7856 327.903L86.7833 327.912C82.9788 343.568 84.7332 360.059 91.7464 374.564Z" fill="#747F8D" stroke="black" strokeWidth="3"/>
    <path d="M395.261 362.639L395.134 362.35V362.035V360.337C376.342 319.822 345.425 286.143 306.654 263.962L306.613 263.938L306.572 263.911C303.975 262.196 301.055 261.029 297.991 260.483C294.927 259.937 291.783 260.023 288.753 260.735C285.724 261.448 282.872 262.773 280.372 264.628L279.478 263.424L280.372 264.628C277.873 266.483 275.78 268.83 274.22 271.524L274.211 271.539L274.202 271.553C272.639 274.115 271.596 276.959 271.132 279.924L269.65 279.692L271.132 279.924C270.669 282.888 270.794 285.915 271.501 288.831C272.208 291.747 273.483 294.496 275.253 296.919C277.017 299.335 279.239 301.381 281.791 302.94C313.559 320.722 338.682 348.354 353.37 381.666C356.231 387.14 361.104 391.291 366.965 393.244C372.834 395.201 379.233 394.8 384.812 392.127C389.976 389.466 393.933 384.938 395.876 379.462C397.821 373.981 397.601 367.964 395.261 362.639Z" fill="#747F8D" stroke="black" strokeWidth="3"/>
    <path d="M305.476 247.829C305.527 247.8 305.577 247.773 305.625 247.746L301.161 232.571L114.862 205.527L106.289 241.724C154.787 274.843 204.693 276.306 242.613 269.423C261.687 265.96 277.711 260.388 288.964 255.683C294.589 253.33 299.018 251.196 302.036 249.653C303.545 248.881 304.7 248.257 305.476 247.829Z" fill="#747F8D" stroke="black" strokeWidth="3"/>
    <path d="M103.428 227.944L291.679 250.724C320.324 254.191 346.355 233.78 349.821 205.135L359.847 122.285C363.313 93.6404 342.902 67.6094 314.258 64.143L126.007 41.3621C97.3624 37.8958 71.3314 58.3067 67.8651 86.9512L57.839 169.802C54.3727 198.446 74.7836 224.477 103.428 227.944Z" fill="#747F8D" stroke="black" strokeWidth="3"/>
    <path d="M258.198 133.877C258.198 142.009 264.79 148.602 272.923 148.602C281.055 148.602 287.647 142.009 287.647 133.877C287.647 125.745 281.055 119.153 272.923 119.153C264.79 119.153 258.198 125.745 258.198 133.877Z" fill="#2F3136" stroke="black" strokeWidth="3"/>
    <path d="M84.7978 112.583C84.7978 120.715 91.3902 127.307 99.5223 127.307C107.654 127.307 114.247 120.715 114.247 112.583C114.247 104.45 107.654 97.858 99.5223 97.858C91.3902 97.858 84.7978 104.45 84.7978 112.583Z" fill="#2F3136" stroke="black" strokeWidth="3"/>
    <path d="M132.485 187.106L132.363 188.113L188.255 194.877C199.074 196.186 209.97 193.144 218.545 186.42C227.121 179.695 232.674 169.84 233.984 159.021L238.978 117.747C239.48 113.603 238.315 109.43 235.739 106.145C233.163 102.86 229.388 100.733 225.244 100.232L123.569 87.9275C119.425 87.4261 115.252 88.5913 111.967 91.1669C108.682 93.7425 106.555 97.5175 106.053 101.661L100.45 147.969C99.3342 157.186 101.926 166.468 107.654 173.774C113.383 181.08 121.779 185.811 130.996 186.926L132.485 187.106Z" fill="#747F8D" stroke="black" strokeWidth="3"/>
    <path d="M131.817 150.22L123.764 149.245C120.694 148.874 117.905 151.061 117.534 154.13L117.448 154.835C117.077 157.904 119.264 160.694 122.334 161.065L130.387 162.04C133.456 162.411 136.246 160.224 136.617 157.155L136.703 156.45C137.074 153.38 134.887 150.591 131.817 150.22Z" fill="#2F3136" stroke="black" strokeWidth="3"/>
    <path d="M180.543 156.032L166.449 154.326C163.379 153.955 160.59 156.142 160.219 159.211L160.133 159.916C159.762 162.985 161.949 165.775 165.018 166.146L179.112 167.852C182.182 168.223 184.971 166.036 185.342 162.967L185.428 162.262C185.799 159.193 183.612 156.403 180.543 156.032Z" fill="#36393F" stroke="black" strokeWidth="3"/>
    <path d="M316.89 218.039L362.716 223.585C368.728 224.312 374.784 222.621 379.55 218.884C384.316 215.147 387.403 209.669 388.13 203.657L394.587 150.302C395.315 144.289 393.624 138.234 389.887 133.467C386.15 128.701 380.672 125.615 374.659 124.887L328.834 119.342L316.89 218.039Z" fill="#747F8D" stroke="black" strokeWidth="3"/>
    <path d="M333.973 201.173L348.591 202.941C351.4 203.281 354.229 202.492 356.456 200.746C358.682 199 360.124 196.441 360.464 193.632L365.459 152.358C365.627 150.967 365.52 149.556 365.143 148.207C364.766 146.858 364.128 145.596 363.263 144.493C362.399 143.391 361.326 142.469 360.105 141.782C358.884 141.094 357.54 140.653 356.149 140.485L341.532 138.716L333.973 201.173Z" fill="#747F8D" stroke="black" strokeWidth="3"/>
    <path d="M42.4061 169.151L30.0504 164.556C26.1027 163.088 21.7123 165.098 20.2441 169.046L19.9967 169.711C18.5285 173.659 20.5386 178.049 24.4864 179.517L36.842 184.112C40.7897 185.581 45.1802 183.57 46.6484 179.623L46.8958 178.957C48.3639 175.01 46.3538 170.619 42.4061 169.151Z" fill="#747F8D" stroke="black" strokeWidth="3"/>
</svg>