<svg width="1565" height="385" viewBox="0 0 1565 385" fill="none" xmlns="http://www.w3.org/2000/svg">
    <rect width="1565" height="380" fill="url(#paint0_linear_37_2395)" />
    <path d="M1136.55 225.782C1137.17 225.834 1137.78 225.638 1138.26 225.238C1138.73 224.839 1139.03 224.267 1139.08 223.649C1139.13 223.343 1139.11 223.032 1139.03 222.732C1138.96 222.433 1138.82 222.152 1138.63 221.905C1138.45 221.658 1138.22 221.451 1137.95 221.294C1137.68 221.138 1137.39 221.036 1137.08 220.994L1136.94 220.99C1130.77 220.293 1124.57 219.913 1118.36 219.853C1118.05 219.841 1117.74 219.891 1117.45 219.999C1117.16 220.107 1116.9 220.27 1116.67 220.481C1116.45 220.692 1116.27 220.945 1116.14 221.226C1116.01 221.507 1115.94 221.81 1115.93 222.119C1115.92 222.21 1115.92 222.301 1115.92 222.392C1115.94 223.026 1116.2 223.631 1116.64 224.079C1117.09 224.528 1117.7 224.785 1118.33 224.797C1118.33 224.797 1124.06 224.687 1136.4 225.791L1136.55 225.782Z" fill="black" />
    <path d="M1136.55 225.782C1137.19 225.833 1137.82 225.629 1138.31 225.215C1138.8 224.801 1139.1 224.21 1139.15 223.573C1139.2 222.936 1139 222.304 1138.58 221.817C1138.17 221.331 1137.58 221.028 1136.94 220.977C1126.69 219.928 1123.08 213.457 1122.96 213.193C1122.67 212.644 1122.17 212.232 1121.58 212.048C1120.99 211.864 1120.34 211.923 1119.8 212.212L1119.6 212.324C1119.32 212.462 1119.08 212.653 1118.87 212.885C1118.67 213.118 1118.52 213.389 1118.42 213.681C1118.32 213.974 1118.29 214.282 1118.31 214.59C1118.33 214.897 1118.41 215.197 1118.55 215.472L1118.55 215.55C1118.8 215.947 1123.52 224.4 1136.37 225.777L1136.55 225.782Z" fill="black" />
    <path d="M1121.67 222.789C1124.06 222.818 1126.37 221.903 1128.09 220.244C1129.81 218.584 1130.82 216.313 1130.88 213.921C1130.94 211.541 1130.05 209.234 1128.42 207.507C1126.78 205.78 1124.52 204.774 1122.14 204.712C1119.76 204.65 1117.45 205.535 1115.72 207.174C1114 208.813 1112.99 211.071 1112.93 213.451C1112.87 215.843 1113.75 218.163 1115.38 219.911C1117.02 221.658 1119.27 222.692 1121.67 222.789ZM1122.01 209.524C1123.11 209.585 1124.13 210.061 1124.89 210.855C1125.64 211.649 1126.06 212.7 1126.07 213.795C1126.04 214.898 1125.57 215.945 1124.77 216.705C1123.97 217.465 1122.9 217.876 1121.79 217.847C1121.25 217.833 1120.71 217.711 1120.21 217.489C1119.71 217.266 1119.26 216.948 1118.88 216.551C1118.51 216.155 1118.21 215.688 1118.02 215.178C1117.82 214.667 1117.73 214.123 1117.74 213.577C1117.76 213.03 1117.88 212.492 1118.1 211.992C1118.32 211.493 1118.64 211.042 1119.04 210.666C1119.43 210.29 1119.9 209.995 1120.41 209.799C1120.92 209.603 1121.47 209.51 1122.01 209.524Z" fill="white" />
    <path d="M1136.55 225.782C1137.12 225.808 1137.67 225.638 1138.13 225.302C1138.63 224.943 1138.98 224.397 1139.08 223.785C1139.18 223.172 1139.04 222.544 1138.68 222.037L1138.61 221.931C1130.07 209.995 1120.65 211.961 1120.25 212.081C1119.64 212.184 1119.1 212.526 1118.74 213.032C1118.38 213.537 1118.23 214.165 1118.34 214.776C1118.33 214.815 1118.33 214.855 1118.33 214.893C1118.5 215.52 1118.89 216.061 1119.44 216.413C1119.98 216.764 1120.64 216.899 1121.28 216.793C1121.54 216.669 1128.07 215.669 1134.73 224.823C1134.92 225.128 1135.19 225.377 1135.51 225.545C1135.83 225.714 1136.19 225.795 1136.55 225.782Z" fill="black" />
    <path d="M1151.83 308.3C1155.79 308.377 1159.72 307.591 1163.34 305.999C1176.67 300.219 1189.3 292.954 1201 284.341C1203.56 282.469 1205.28 279.657 1205.77 276.522C1206.26 273.386 1205.48 270.185 1203.61 267.621L1203.52 267.489C1201.62 264.93 1198.77 263.23 1195.62 262.757C1192.46 262.284 1189.25 263.078 1186.67 264.965C1176.45 272.443 1165.41 278.746 1153.78 283.755C1153.33 283.989 1152.82 284.093 1152.32 284.057C1151.81 284.021 1151.33 283.845 1150.92 283.55C1150.48 283.279 1150.1 282.913 1149.82 282.477C1149.54 282.042 1149.36 281.549 1149.29 281.035C1146.9 258.067 1147.99 231.157 1148 230.897C1148.15 227.692 1147.02 224.558 1144.87 222.183C1142.71 219.809 1139.7 218.388 1136.49 218.232L1136.36 218.229C1133.16 218.141 1130.06 219.312 1127.71 221.489C1125.37 223.667 1123.97 226.677 1123.82 229.873C1123.79 231.044 1122.67 258.865 1125.28 283.659C1126 290.273 1129.08 296.404 1133.96 300.929C1138.84 305.454 1145.18 308.071 1151.83 308.3Z" fill="url(#paint1_linear_37_2395)" />
    <path d="M1123.87 262.801L1147.9 259.786C1148 260.96 1147.96 262.13 1148.07 263.174L1124.04 266.189C1123.92 265.064 1123.86 263.932 1123.87 262.801Z" fill="#51B1FC" />
    <path d="M1134.95 301.742L1149.51 281.952C1149.75 282.645 1150.25 283.219 1150.9 283.55C1151.24 283.805 1151.64 283.952 1152.06 283.971L1137.62 303.764C1136.63 303.242 1135.73 302.559 1134.95 301.742Z" fill="#51B1FC" />
    <path d="M1147.87 235.839L1147.78 239.22L1123.57 239.497L1123.66 236.116L1147.87 235.839Z" fill="#51B1FC" />
    <path d="M1179.02 298.341L1176.11 299.957L1166.68 277.586L1169.58 275.97L1179.02 298.341Z" fill="#51B1FC" />
    <path d="M1159.39 133.98C1161.4 128.023 1165.02 122.742 1169.86 118.731C1174.7 114.72 1180.57 112.137 1186.79 111.273C1234.03 104.595 1282.17 113.436 1323.95 136.468C1329.48 139.52 1334.05 144.054 1337.15 149.56C1340.25 155.067 1341.75 161.328 1341.48 167.64C1340.97 178.047 1339.74 188.407 1337.81 198.647C1335.97 208.943 1333.39 219.096 1330.12 229.029C1328.1 235.003 1324.45 240.295 1319.59 244.307C1314.72 248.319 1308.83 250.891 1302.58 251.733C1255.37 258.469 1207.25 249.576 1165.56 226.411C1160.01 223.41 1155.42 218.906 1152.32 213.415C1149.22 207.924 1147.73 201.669 1148.02 195.369C1148.49 184.92 1149.67 174.515 1151.57 164.228C1153.53 153.989 1156.14 143.886 1159.39 133.98Z" fill="url(#paint2_linear_37_2395)" />
    <path d="M1169.49 141.013C1170.77 136.79 1173.26 133.03 1176.63 130.186C1180.01 127.342 1184.14 125.535 1188.52 124.983C1204.65 123.061 1221 123.885 1236.86 127.421C1252.91 131.043 1268.23 137.34 1282.19 146.046C1286.06 148.434 1289.22 151.832 1291.31 155.876C1293.41 159.919 1294.36 164.457 1294.08 169.002C1293.64 176.53 1292.74 184.025 1291.41 191.446C1290.03 198.838 1288.19 206.136 1285.89 213.295C1284.56 217.492 1282.06 221.224 1278.69 224.061C1275.33 226.898 1271.22 228.723 1266.86 229.325C1250.67 231.203 1234.28 230.334 1218.39 226.754C1202.36 223.138 1187.04 216.888 1173.06 208.259C1169.23 205.835 1166.11 202.427 1164.04 198.39C1161.97 194.353 1161.03 189.834 1161.3 185.306C1161.66 177.772 1162.55 170.272 1163.97 162.862C1165.28 155.456 1167.13 148.154 1169.49 141.013Z" fill="#FF5D12" />
    <path d="M1173.16 145.013C1174.45 140.79 1176.91 137.02 1180.26 134.137C1183.6 131.255 1187.69 129.376 1192.06 128.72C1208.18 126.624 1224.53 127.272 1240.42 130.637C1256.64 134.171 1272.18 140.337 1286.41 148.889C1290.3 151.321 1293.47 154.765 1295.56 158.854C1297.65 162.942 1298.6 167.522 1298.29 172.105C1297.8 179.721 1296.87 187.301 1295.48 194.806C1294.01 202.328 1292.08 209.752 1289.7 217.039C1288.34 221.306 1285.79 225.095 1282.35 227.957C1278.91 230.819 1274.72 232.634 1270.27 233.188C1254.05 235.115 1237.61 234.289 1221.66 230.744C1205.68 227.111 1190.41 220.862 1176.47 212.252C1172.67 209.835 1169.58 206.444 1167.54 202.431C1165.49 198.418 1164.56 193.929 1164.83 189.433C1165.31 181.902 1166.24 174.408 1167.63 166.992C1168.96 159.546 1170.81 152.202 1173.16 145.013Z" fill="black" />
    <path d="M1319.59 232.034C1310.62 228.947 1307.3 214.989 1312.16 200.858C1317.03 186.728 1328.24 177.776 1337.21 180.863C1346.18 183.951 1349.5 197.909 1344.64 212.04C1339.77 226.17 1328.56 235.122 1319.59 232.034Z" fill="#FFE75C" />
    <path d="M1295.28 123.224C1284.83 119.697 1276.85 116.234 1265.97 119.203C1260.86 120.631 1256.03 121.285 1233.37 116.788C1220.55 114.24 1221.96 110.242 1222.72 105.968C1224.19 99.6291 1237.25 97.8888 1268.44 104.302C1297.69 110.403 1295.28 123.224 1295.28 123.224Z" fill="url(#paint3_linear_37_2395)" />
    <path d="M1180.67 275.479C1181.8 271.468 1184.22 267.94 1187.56 265.44C1190.89 262.94 1194.95 261.607 1199.12 261.647L1264.84 261.676C1269.02 261.654 1273.09 262.999 1276.43 265.507C1279.77 268.015 1282.2 271.547 1283.35 275.565L1297.9 326.18C1301.47 338.549 1300.24 351.808 1294.46 363.31C1292.09 368.202 1288.38 372.323 1283.77 375.197C1279.16 378.07 1273.83 379.578 1268.39 379.546L1195.39 379.456C1189.96 379.448 1184.64 377.931 1180.03 375.076C1175.42 372.22 1171.69 368.138 1169.26 363.285C1163.56 351.694 1162.37 338.394 1165.94 325.978L1180.67 275.479Z" fill="#FF962A" />
    <path d="M1183.82 324.234L1220.62 325.198C1221.89 325.212 1223.12 324.775 1224.09 323.966C1225.07 323.158 1225.72 322.03 1225.94 320.783C1226.56 317.025 1227.64 310.806 1229.32 301.22C1231 291.634 1232.61 279.833 1236.34 271.862C1236.55 271.431 1236.59 270.931 1236.44 270.471C1236.29 270.012 1235.97 269.63 1235.54 269.407C1235.25 269.254 1234.91 269.187 1234.58 269.213L1197.63 269.026C1196.72 269.043 1195.83 269.292 1195.04 269.749C1194.25 270.207 1193.6 270.859 1193.14 271.642C1187.67 281.519 1184.89 298.235 1180.42 319.981C1180.33 320.452 1180.35 320.935 1180.45 321.402C1180.56 321.869 1180.75 322.311 1181.03 322.701C1181.31 323.092 1181.66 323.424 1182.06 323.679C1182.47 323.933 1182.92 324.105 1183.39 324.184L1183.82 324.234Z" fill="#FFE75C" />
    <path d="M1167.29 254.567C1169.35 254.62 1171.38 254.063 1173.12 252.965C1174.86 251.866 1176.24 250.276 1177.07 248.396C1177.91 246.515 1178.17 244.429 1177.82 242.4C1177.47 240.371 1176.53 238.492 1175.11 236.998C1173.7 235.505 1171.87 234.466 1169.86 234.011C1167.85 233.557 1165.76 233.708 1163.84 234.446C1161.91 235.184 1160.25 236.475 1159.07 238.156C1157.88 239.837 1157.22 241.832 1157.16 243.89C1157.09 246.649 1158.12 249.324 1160.02 251.327C1161.92 253.329 1164.53 254.494 1167.29 254.567ZM1167.71 238.7C1168.81 238.704 1169.9 239.035 1170.81 239.653C1171.73 240.27 1172.45 241.146 1172.87 242.169C1173.29 243.193 1173.39 244.318 1173.17 245.402C1172.95 246.487 1172.42 247.482 1171.63 248.262C1170.85 249.042 1169.85 249.571 1168.77 249.784C1167.68 249.997 1166.56 249.883 1165.54 249.457C1164.51 249.03 1163.64 248.311 1163.03 247.39C1162.42 246.468 1162.09 245.386 1162.1 244.28C1162.09 244.193 1162.09 244.105 1162.1 244.019C1162.14 242.571 1162.75 241.197 1163.8 240.199C1164.86 239.202 1166.26 238.662 1167.71 238.7Z" fill="black" />
    <path d="M1175.23 254.775C1175.8 254.794 1176.37 254.598 1176.81 254.225C1177.25 253.852 1177.54 253.329 1177.62 252.756C1177.75 252.629 1180.28 235.777 1182.18 227.628C1182.26 227.323 1182.28 227.005 1182.23 226.693C1182.18 226.382 1182.08 226.082 1181.91 225.812C1181.75 225.542 1181.54 225.307 1181.28 225.119C1181.03 224.932 1180.74 224.796 1180.44 224.719C1180.13 224.643 1179.81 224.628 1179.5 224.674C1179.19 224.72 1178.89 224.828 1178.62 224.99C1178.35 225.152 1178.12 225.366 1177.93 225.619C1177.74 225.872 1177.61 226.16 1177.53 226.465C1175.49 234.871 1172.97 251.333 1172.83 251.98C1172.73 252.614 1172.89 253.261 1173.26 253.781C1173.64 254.302 1174.2 254.655 1174.84 254.765L1175.23 254.775Z" fill="black" />
    <path d="M1237.63 311.849C1251.66 312.867 1262.3 303.906 1275.34 293.055L1277.6 291.162C1280.06 289.104 1281.59 286.155 1281.87 282.966C1282.15 279.776 1281.15 276.606 1279.09 274.153C1277.03 271.7 1274.08 270.166 1270.89 269.887C1267.7 269.608 1264.53 270.608 1262.08 272.666L1259.82 274.559C1245.05 286.926 1241.88 288.665 1237.1 287.369C1228.05 284.92 1211.77 270.698 1186.63 246.875C1184.26 244.935 1181.25 243.963 1178.19 244.156C1175.14 244.348 1172.27 245.69 1170.17 247.911C1168.07 250.133 1166.88 253.069 1166.86 256.128C1166.83 259.187 1167.96 262.143 1170.03 264.4C1200.38 293.305 1216.42 306.739 1230.76 310.758C1233.01 311.368 1235.31 311.734 1237.63 311.849Z" fill="url(#paint4_linear_37_2395)" />
    <path d="M1097.48 276.815L1097.74 276.822L1156.72 270.688C1157.12 270.639 1157.51 270.485 1157.83 270.243C1158.16 270 1158.42 269.677 1158.58 269.305C1158.77 268.912 1158.85 268.475 1158.81 268.04C1158.78 267.605 1158.63 267.187 1158.38 266.828L1123.72 218.809C1123.45 218.465 1123.09 218.195 1122.69 218.025C1122.28 217.855 1121.84 217.791 1121.4 217.838C1120.98 217.883 1120.58 218.049 1120.25 218.318C1119.92 218.587 1119.67 218.945 1119.54 219.351L1095.22 273.373C1095.08 273.76 1095.03 274.179 1095.09 274.591C1095.14 275.002 1095.3 275.392 1095.55 275.724C1095.76 276.051 1096.04 276.322 1096.38 276.512C1096.71 276.703 1097.09 276.807 1097.48 276.815ZM1152.02 266.271L1101.39 271.452L1122.25 225.148L1152.02 266.271Z" fill="white" />
    <path d="M1114.09 258.51L1114.74 258.527L1164.8 245.522C1165.45 245.48 1166.06 245.18 1166.5 244.688C1166.93 244.195 1167.15 243.55 1167.11 242.895C1167.07 242.24 1166.77 241.628 1166.28 241.194C1165.78 240.76 1165.14 240.54 1164.48 240.581C1164.19 240.61 1163.89 240.686 1163.62 240.806L1113.57 253.681C1112.94 253.874 1112.4 254.299 1112.08 254.87C1111.75 255.441 1111.65 256.116 1111.8 256.758C1111.94 257.256 1112.25 257.694 1112.66 258.009C1113.07 258.324 1113.57 258.499 1114.09 258.51Z" fill="#FFE75C" />
    <path d="M1242.01 169.59L1276.94 177.272C1275.88 173.61 1273.84 170.306 1271.04 167.712C1268.24 165.118 1264.79 163.331 1261.06 162.541C1257.54 161.69 1253.85 161.906 1250.46 163.162C1247.07 164.417 1244.12 166.655 1242.01 169.59Z" fill="#57F287" />
    <path d="M1211.86 162.944L1178.61 155.567C1180.63 152.743 1183.45 150.579 1186.7 149.345C1189.95 148.111 1193.49 147.861 1196.88 148.627C1200.43 149.436 1203.71 151.194 1206.35 153.716C1208.98 156.237 1210.89 159.426 1211.86 162.944Z" fill="#57F287" />
    <path d="M1256.38 192.09L1192.09 177.523C1190.33 189.84 1200.1 204.542 1219.89 209.224C1239.67 213.907 1254.1 204.654 1256.38 192.09Z" fill="#57F287" />
    <path d="M1298.66 351.448L1165.14 351.205C1164.8 349.738 1164.53 348.254 1164.35 346.759L1299.43 346.913C1299.29 348.443 1299.04 349.96 1298.66 351.448Z" fill="#FF5D12" />
    <path d="M1197.29 256.914L1199.71 259.19L1183.62 277.248L1181.2 274.973L1197.29 256.914Z" fill="#3F99F2" />
    <path d="M1270.55 297.094L1267.89 299.236L1255.16 278.471L1257.69 276.325L1270.55 297.094Z" fill="#3F99F2" />
    <path d="M1209.08 298.998L1206.4 296.846L1219.05 276.094L1221.73 278.117L1209.08 298.998Z" fill="#3F99F2" />
    <path d="M1238.91 287.676C1240.06 287.834 1241.24 287.685 1242.31 287.244L1242.71 311.851L1239.32 311.763L1238.91 287.676Z" fill="#3F99F2" />
    <path d="M1375.34 255.502C1374.02 254.603 1372.91 253.431 1372.08 252.063C1371.25 250.695 1370.73 249.164 1370.55 247.577L1369.89 242.259C1369.87 242.117 1369.8 241.987 1369.69 241.893C1369.59 241.798 1369.45 241.746 1369.31 241.744C1369.17 241.741 1369.04 241.789 1368.95 241.881C1368.85 241.972 1368.8 242.098 1368.79 242.231L1367.85 247.506C1367.57 249.074 1366.96 250.565 1366.06 251.885C1365.16 253.204 1364 254.322 1362.65 255.17L1361.94 255.551C1361.85 255.59 1361.76 255.658 1361.71 255.746C1361.65 255.834 1361.62 255.938 1361.63 256.043C1361.62 256.147 1361.64 256.251 1361.69 256.343C1361.74 256.434 1361.82 256.506 1361.92 256.55L1362.61 256.968C1363.9 257.873 1364.99 259.035 1365.82 260.382C1366.64 261.728 1367.18 263.23 1367.4 264.794L1368.06 270.211C1368.06 270.343 1368.11 270.472 1368.2 270.568C1368.29 270.664 1368.41 270.72 1368.55 270.724C1368.69 270.73 1368.83 270.683 1368.94 270.595C1369.05 270.506 1369.13 270.38 1369.16 270.24L1370.1 264.865C1370.38 263.306 1370.98 261.825 1371.88 260.52C1372.78 259.215 1373.94 258.117 1375.3 257.301L1376.01 256.919C1376.13 256.784 1376.21 256.609 1376.22 256.425C1376.22 256.24 1376.15 256.061 1376.03 255.92L1375.34 255.502Z" fill="#57F287" />
    <path d="M1094.65 314.745C1092.65 313.411 1090.97 311.672 1089.73 309.641C1088.48 307.612 1087.69 305.341 1087.42 302.986L1086.42 295.099C1086.39 294.887 1086.28 294.695 1086.12 294.555C1085.96 294.415 1085.75 294.337 1085.53 294.334C1085.33 294.329 1085.14 294.401 1084.99 294.536C1084.85 294.672 1084.77 294.858 1084.76 295.055L1083.35 302.88C1082.92 305.206 1082 307.417 1080.65 309.374C1079.3 311.329 1077.55 312.987 1075.52 314.244L1074.45 314.809C1074.3 314.866 1074.18 314.968 1074.09 315.098C1074.01 315.229 1073.97 315.383 1073.98 315.539C1073.96 315.692 1073.99 315.847 1074.07 315.983C1074.15 316.118 1074.27 316.225 1074.41 316.291L1075.45 316.912C1077.4 318.255 1079.05 319.979 1080.29 321.977C1081.54 323.974 1082.35 326.203 1082.68 328.522L1083.67 336.558C1083.67 336.754 1083.74 336.946 1083.88 337.087C1084.02 337.23 1084.21 337.314 1084.41 337.319C1084.62 337.328 1084.83 337.259 1085 337.128C1085.17 336.996 1085.29 336.81 1085.33 336.602L1086.75 328.629C1087.16 326.317 1088.08 324.121 1089.43 322.186C1090.78 320.25 1092.53 318.623 1094.58 317.413L1095.65 316.848C1095.83 316.646 1095.95 316.387 1095.97 316.114C1095.96 315.84 1095.86 315.575 1095.68 315.365L1094.65 314.745Z" fill="#57F287" />
    <path d="M1110.57 121.326C1109.66 120.714 1108.89 119.918 1108.31 118.99C1107.73 118.062 1107.36 117.022 1107.21 115.939L1106.81 112.128C1106.71 111.926 1106.62 111.823 1106.42 111.818C1106.22 111.813 1106.01 111.907 1106.01 112.107L1105.41 115.891C1105.2 116.965 1104.77 117.984 1104.14 118.881C1103.52 119.777 1102.71 120.532 1101.77 121.096L1101.26 121.483C1101.16 121.48 1101.06 121.577 1101.05 121.777C1101.05 121.877 1101.15 121.98 1101.25 122.082L1101.74 122.395C1102.65 123.028 1103.41 123.842 1103.99 124.787C1104.57 125.731 1104.95 126.786 1105.09 127.883L1105.49 131.693C1105.52 131.782 1105.57 131.861 1105.64 131.917C1105.71 131.974 1105.8 132.004 1105.89 132.004C1106.09 132.009 1106.19 131.812 1106.29 131.714L1106.89 127.93C1107.1 126.842 1107.53 125.809 1108.16 124.896C1108.78 123.983 1109.59 123.21 1110.53 122.625L1111.04 122.339C1111.14 122.241 1111.24 122.144 1111.25 122.044C1111.25 121.844 1111.16 121.742 1111.06 121.739L1110.57 121.326Z" fill="#FF8CC4" />
    <path d="M1344.82 331.837C1343.75 331.138 1342.84 330.231 1342.16 329.173C1341.48 328.115 1341.04 326.931 1340.86 325.696L1340.38 321.356C1340.27 321.125 1340.16 321.008 1339.92 321.002C1339.69 320.996 1339.45 321.104 1339.44 321.331L1338.74 325.641C1338.5 326.864 1337.99 328.024 1337.26 329.044C1336.52 330.065 1335.57 330.924 1334.47 331.566L1333.87 332.006C1333.75 332.003 1333.63 332.113 1333.62 332.341C1333.62 332.455 1333.73 332.572 1333.85 332.689L1334.43 333.045C1335.5 333.767 1336.4 334.695 1337.08 335.772C1337.76 336.848 1338.21 338.05 1338.38 339.3L1338.86 343.64C1338.88 343.741 1338.94 343.831 1339.02 343.895C1339.11 343.96 1339.21 343.994 1339.32 343.994C1339.55 344 1339.68 343.776 1339.8 343.665L1340.5 339.355C1340.74 338.116 1341.25 336.939 1341.98 335.9C1342.72 334.861 1343.67 333.981 1344.78 333.316L1345.37 332.99C1345.49 332.88 1345.62 332.769 1345.62 332.655C1345.62 332.427 1345.51 332.31 1345.39 332.307L1344.82 331.837Z" fill="#FF8CC4" />
    <defs>
        <linearGradient id="paint1_linear_37_2395" x1="1173.38" y1="287.99" x2="1141.22" y2="260.652" gradientUnits="userSpaceOnUse">
            <stop stop-color="#66BCFF" />
            <stop offset="1" stop-color="#8CD9FF" />
        </linearGradient>
        <linearGradient id="paint2_linear_37_2395" x1="1256.57" y1="101.401" x2="1233.56" y2="256.576" gradientUnits="userSpaceOnUse">
            <stop stop-color="#FFC618" />
            <stop offset="0.31" stop-color="#FFAD19" />
            <stop offset="1" stop-color="#FF7D12" />
        </linearGradient>
        <linearGradient id="paint3_linear_37_2395" x1="-55090.3" y1="24861.9" x2="-59229" y2="24753.5" gradientUnits="userSpaceOnUse">
            <stop stop-color="#66BCFF" />
            <stop offset="1" stop-color="#8CD9FF" />
        </linearGradient>
        <linearGradient id="paint4_linear_37_2395" x1="-92707.2" y1="-71618.4" x2="-98642.6" y2="-72011.6" gradientUnits="userSpaceOnUse">
            <stop stop-color="#66BCFF" />
            <stop offset="1" stop-color="#8CD9FF" />
        </linearGradient>
    </defs>
</svg>