<svg width="24" height="24" viewBox="0 0 24 24" fill="none" xmlns="http://www.w3.org/2000/svg">
<path fill-rule="evenodd" clip-rule="evenodd" d="M21.16 3V22.5H3.88003C3.08477 22.5 2.44002 21.8291 2.44002 21C2.44002 20.171 3.08477 19.5 3.88003 19.5H19.72V0H3.88003C2.2895 0 1 1.34326 1 3V21C1 22.6568 2.2895 24 3.88003 24H22.6V3H21.16ZM12.703 4.90321C12.5854 4.7658 12.3935 4.76558 12.2757 4.90266L11.8875 5.35423C11.771 5.48973 11.7709 5.70847 11.887 5.84426L14.893 9.35524C15.0091 9.49085 15.0091 9.70918 14.893 9.84475L11.887 13.3558C11.7709 13.4916 11.771 13.7103 11.8875 13.8458L12.2757 14.2974C12.3935 14.4344 12.5854 14.4342 12.703 14.2968L16.513 9.84475C16.629 9.70911 16.629 9.49088 16.513 9.35531L12.703 4.90321ZM9.31256 5.35423C9.42902 5.48973 9.42916 5.70847 9.31293 5.84426L6.30706 9.35524C6.19097 9.49085 6.19097 9.70918 6.30706 9.84475L9.31293 13.3558C9.42916 13.4916 9.42902 13.7103 9.31256 13.8458L8.92438 14.2974C8.80653 14.4344 8.61464 14.4342 8.49701 14.2968L4.68702 9.84475C4.571 9.70911 4.571 9.49088 4.68702 9.35531L8.49701 4.90321C8.61464 4.7658 8.80653 4.76558 8.92438 4.90266L9.31256 5.35423Z" fill="currentColor"/>
</svg>
