<svg width="24" height="24" viewBox="0 0 18 16" fill="none" xmlns="http://www.w3.org/2000/svg">
    <path d="M18 3.55728V1.77775C18 0.796432 17.1927 0 16.2 0H1.80021C0.807522 0 0.000232264 0.796432 0.000232264 1.77775V3.55728H18ZM5.40016 0.888875C5.89696 0.888875 6.30015 1.28709 6.30015 1.77775C6.30015 2.26841 5.89696 2.66662 5.40016 2.66662C4.90337 2.66662 4.50017 2.26841 4.50017 1.77775C4.50017 1.28709 4.90337 0.888875 5.40016 0.888875ZM2.7002 0.888875C3.19699 0.888875 3.60019 1.28709 3.60019 1.77775C3.60019 2.26841 3.19699 2.66662 2.7002 2.66662C2.2034 2.66662 1.80021 2.26841 1.80021 1.77775C1.80021 1.28709 2.2034 0.888875 2.7002 0.888875Z" fill="currentColor" />
    <path d="M0 4.44641V14.2223C0 15.2027 0.80729 16 1.79998 16H16.1998C17.1925 16 17.9998 15.2027 17.9998 14.2223V4.44641H0ZM5.13623 13.9645L3.86365 12.7076L5.92732 10.6694L3.86365 8.63123L5.13623 7.37436L8.47249 10.6694L5.13623 13.9645ZM14.3998 13.336H9.89987V11.5583H14.3998V13.336Z" fill="currentColor" />
</svg>
    