<svg width="24" height="24" viewBox="0 0 18 18" fill="none" xmlns="http://www.w3.org/2000/svg">
    <path d="M17.7363 10.4457L7.5526 0.263928C7.20067 -0.087976 6.63181 -0.087976 6.27987 0.263928C4.74971 1.79395 3.90632 3.82707 3.90632 5.99069C3.90632 8.15432 4.74971 10.1883 6.27987 11.7175C7.81003 13.2475 9.84424 14.0908 12.0081 14.0908C14.1719 14.0908 16.2061 13.2475 17.7363 11.7175C17.9055 11.5492 18 11.3206 18 11.0821C18 10.8435 17.9055 10.614 17.7363 10.4457Z" fill="currentColor" />
    <path d="M14.0823 5.0808L14.7565 4.40669C14.9284 4.46249 15.1102 4.50029 15.3019 4.50029C16.2956 4.50029 17.1021 3.69389 17.1021 2.70027C17.1021 1.70666 16.2956 0.900254 15.3019 0.900254C14.3073 0.900254 13.5017 1.70666 13.5017 2.70027C13.5017 2.82898 13.5161 2.95408 13.5422 3.07468L12.8087 3.80729L14.0823 5.0808Z" fill="currentColor" />
    <path d="M4.23621 11.0636C4.03099 10.8593 3.74026 10.7657 3.45583 10.8116C3.1705 10.8584 2.92478 11.0393 2.79516 11.2976L0.0948785 16.6977C-0.0446362 16.9767 -0.0293345 17.3079 0.134483 17.5743C0.2983 17.838 0.58723 18 0.899563 18H9.00041C9.36405 18 9.69259 17.7813 9.8321 17.4447C9.97161 17.1081 9.89421 16.7211 9.63678 16.4637L4.23621 11.0636Z" fill="currentColor" />
</svg>
    