<svg width="24" height="24" viewBox="0 0 18 11" fill="none" xmlns="http://www.w3.org/2000/svg">
    <path d="M9.53182 3.66667C8.86091 1.53083 7.04455 0 4.90909 0C2.20091 0 0 2.46583 0 5.5C0 8.53417 2.20091 11 4.90909 11C7.04455 11 8.86091 9.46917 9.53182 7.33333H13.0909V11H16.3636V7.33333H18V3.66667H9.53182ZM4.90909 7.33333C4.00909 7.33333 3.27273 6.50833 3.27273 5.5C3.27273 4.49167 4.00909 3.66667 4.90909 3.66667C5.80909 3.66667 6.54545 4.49167 6.54545 5.5C6.54545 6.50833 5.80909 7.33333 4.90909 7.33333Z" fill="currentColor" />
</svg>
    