<svg width="24" height="24" viewBox="0 0 500 500" fill="none" xmlns="http://www.w3.org/2000/svg%22%3E">
<rect class="logo-rect" width="500" height="500" rx="250" fill="#5165F6"/>
<path class="logo-body" d="M358.447 151.016C338.315 141.665 316.789 134.869 294.285 131C291.521 135.961 288.292 142.633 286.066 147.94C262.143 144.369 238.44 144.369 214.957 147.94C212.731 142.633 209.429 135.961 206.641 131C184.112 134.869 162.562 141.69 142.43 151.065C101.824 211.981 90.8169 271.384 96.3207 329.943C123.252 349.91 149.352 362.038 175.012 369.975C181.348 361.319 186.998 352.117 191.866 342.419C182.595 338.922 173.716 334.606 165.326 329.596C167.552 327.959 169.729 326.248 171.832 324.487C223.005 348.248 278.605 348.248 329.167 324.487C331.295 326.248 333.472 327.959 335.673 329.596C327.259 334.631 318.355 338.947 309.084 342.444C313.952 352.117 319.578 361.344 325.938 370C351.622 362.063 377.746 349.934 404.678 329.943C411.136 262.058 393.646 203.201 358.447 151.016ZM198.837 293.93C183.476 293.93 170.878 279.693 170.878 262.356C170.878 245.019 183.207 230.757 198.837 230.757C214.468 230.757 227.066 244.994 226.797 262.356C226.821 279.693 214.468 293.93 198.837 293.93ZM302.161 293.93C286.8 293.93 274.202 279.693 274.202 262.356C274.202 245.019 286.531 230.757 302.161 230.757C317.792 230.757 330.39 244.994 330.121 262.356C330.121 279.693 317.792 293.93 302.161 293.93Z" fill="white"/>
<path class="logo-body" d="M171 230H330V294H171V230Z" fill="white"/>
<path class="logo-lines" d="M318.375 196.5H183.625C178.309 196.5 174 200.843 174 206.2C174 211.557 178.309 215.9 183.625 215.9H318.375C323.691 215.9 328 211.557 328 206.2C328 200.843 323.691 196.5 318.375 196.5Z" fill="#5165F6"/>
<path class="logo-lines" d="M241.375 274.1H183.625C178.309 274.1 174 278.443 174 283.8C174 289.157 178.309 293.5 183.625 293.5H241.375C246.691 293.5 251 289.157 251 283.8C251 278.443 246.691 274.1 241.375 274.1Z" fill="#5165F6"/>
<path class="logo-lines" d="M318.375 235.3H183.625C178.309 235.3 174 239.643 174 245C174 250.357 178.309 254.7 183.625 254.7H318.375C323.691 254.7 328 250.357 328 245C328 239.643 323.691 235.3 318.375 235.3Z" fill="#5165F6"/>
</svg>