<svg width="24" height="24" viewBox="0 0 18 18" fill="none" xmlns="http://www.w3.org/2000/svg">
    <path fill-rule="evenodd" clip-rule="evenodd" d="M1.39381 0C0.624027 0 0 0.696444 0 1.55556V16.4444C0 17.3036 0.624027 18 1.39381 18H15.1208C15.4949 18 15.8533 17.8322 16.1154 17.5343L17.6008 15.8458C17.8566 15.5549 18 15.1636 18 14.756V5.81689C18 4.95778 17.376 4.26133 16.6062 4.26133H14.6628V1.55556C14.6628 0.696444 14.0388 0 13.269 0H1.39381ZM12.2433 3.09902C12.2433 2.85356 12.0651 2.65458 11.8451 2.65458H2.23369C2.01375 2.65458 1.83546 2.85356 1.83546 3.09902V5.33044C1.83546 5.57591 2.01375 5.77489 2.23369 5.77489H11.8451C12.0651 5.77489 12.2433 5.57591 12.2433 5.33044V3.09902ZM6.59095 8.43151C6.59095 8.18604 6.41266 7.98707 6.19272 7.98707H2.23369C2.01375 7.98707 1.83546 8.18604 1.83546 8.43151V9.63836C1.83546 9.88382 2.01375 10.0828 2.23369 10.0828H6.19272C6.41266 10.0828 6.59095 9.88382 6.59095 9.63836V8.43151ZM12.2433 8.43151C12.2433 8.18604 12.0651 7.98707 11.8451 7.98707H7.48975C7.26985 7.98707 7.09152 8.18604 7.09152 8.43151V9.63836C7.09152 9.88382 7.26985 10.0828 7.48975 10.0828H11.8451C12.0651 10.0828 12.2433 9.88382 12.2433 9.63836V8.43151ZM6.59095 11.0628C6.59095 10.8173 6.41266 10.6184 6.19272 10.6184H2.23369C2.01375 10.6184 1.83546 10.8173 1.83546 11.0628V12.2696C1.83546 12.5151 2.01375 12.7141 2.23369 12.7141H6.19272C6.41266 12.7141 6.59095 12.5151 6.59095 12.2696V11.0628ZM12.2433 11.0628C12.2433 10.8173 12.0651 10.6184 11.8451 10.6184H7.48975C7.26985 10.6184 7.09152 10.8173 7.09152 11.0628V12.2696C7.09152 12.5151 7.26985 12.7141 7.48975 12.7141H11.8451C12.0651 12.7141 12.2433 12.5151 12.2433 12.2696V11.0628ZM6.59095 13.7407C6.59095 13.4952 6.41266 13.2963 6.19272 13.2963H2.23369C2.01375 13.2963 1.83546 13.4952 1.83546 13.7407V14.9476C1.83546 15.193 2.01375 15.392 2.23369 15.392H6.19272C6.41266 15.392 6.59095 15.193 6.59095 14.9476V13.7407ZM12.2433 13.7407C12.2433 13.4952 12.0651 13.2963 11.8451 13.2963H7.48975C7.26985 13.2963 7.09152 13.4952 7.09152 13.7407V14.9476C7.09152 15.193 7.26985 15.392 7.48975 15.392H11.8451C12.0651 15.392 12.2433 15.193 12.2433 14.9476V13.7407ZM16.0603 6.84809C16.0603 6.60262 15.882 6.40364 15.662 6.40364H14.623C14.4031 6.40364 14.2248 6.60262 14.2248 6.84809V14.9476C14.2248 15.193 14.4031 15.392 14.623 15.392H15.3155C15.4186 15.392 15.5177 15.3473 15.5919 15.2674L15.9385 14.8944C16.0163 14.8106 16.0603 14.6951 16.0603 14.5744V6.84809Z" fill="currentColor" />
</svg>
    